<mxfile host="app.diagrams.net" modified="2022-08-30T04:36:43.964Z" agent="5.0 (X11; Linux x86_64) AppleWebKit/537.36 (KHTML, like Gecko) Chrome/103.0.0.0 Safari/537.36" etag="ZAZTMrIDm5Ho0hiUuRtn" version="20.2.7" type="github">
  <diagram id="wpZjMfMTtKejudYkX9C8" name="第 1 页">
    <mxGraphModel dx="2870" dy="1133" grid="1" gridSize="10" guides="1" tooltips="1" connect="1" arrows="1" fold="1" page="1" pageScale="1" pageWidth="827" pageHeight="1169" math="0" shadow="0">
      <root>
        <mxCell id="0" />
        <mxCell id="1" parent="0" />
        <mxCell id="c_3Rd0l2Icrjn9UalRlu-1" value="" style="rounded=0;whiteSpace=wrap;html=1;" vertex="1" parent="1">
          <mxGeometry x="280" y="410" width="120" height="60" as="geometry" />
        </mxCell>
      </root>
    </mxGraphModel>
  </diagram>
</mxfile>
